<svg width="319" height="114" viewBox="0 0 319 114" fill="none" xmlns="http://www.w3.org/2000/svg">
<g clip-path="url(#clip0_1_4)">
<path d="M16.5455 64.5227V57.4545H53.6818V64.5227H39.2955V104H30.9318V64.5227H16.5455ZM70.8693 104.682C67.3693 104.682 64.3466 103.955 61.8011 102.5C59.2708 101.03 57.3239 98.9545 55.9602 96.2727C54.5966 93.5758 53.9148 90.4015 53.9148 86.75C53.9148 83.1591 54.5966 80.0076 55.9602 77.2955C57.339 74.5682 59.2633 72.447 61.733 70.9318C64.2027 69.4015 67.1042 68.6364 70.4375 68.6364C72.589 68.6364 74.6193 68.9848 76.5284 69.6818C78.4527 70.3636 80.1496 71.4242 81.6193 72.8636C83.1042 74.303 84.2708 76.1364 85.1193 78.3636C85.9678 80.5758 86.392 83.2121 86.392 86.2727V88.7955H57.7784V83.25H78.5057C78.4905 81.6742 78.1496 80.2727 77.483 79.0455C76.8163 77.803 75.8845 76.8258 74.6875 76.1136C73.5057 75.4015 72.1269 75.0455 70.5511 75.0455C68.8693 75.0455 67.392 75.4545 66.1193 76.2727C64.8466 77.0758 63.8542 78.1364 63.142 79.4545C62.4451 80.7576 62.089 82.1894 62.0739 83.75V88.5909C62.0739 90.6212 62.4451 92.3636 63.1875 93.8182C63.9299 95.2576 64.9678 96.3636 66.3011 97.1364C67.6345 97.8939 69.1951 98.2727 70.983 98.2727C72.1799 98.2727 73.2633 98.1061 74.233 97.7727C75.2027 97.4242 76.0436 96.9167 76.7557 96.25C77.4678 95.5833 78.0057 94.7576 78.3693 93.7727L86.0511 94.6364C85.5663 96.6667 84.642 98.4394 83.2784 99.9545C81.9299 101.455 80.2027 102.621 78.0966 103.455C75.9905 104.273 73.5814 104.682 70.8693 104.682ZM108.58 104.682C105.095 104.682 102.102 103.917 99.6023 102.386C97.1174 100.856 95.2008 98.7424 93.8523 96.0455C92.5189 93.3333 91.8523 90.2121 91.8523 86.6818C91.8523 83.1364 92.5341 80.0076 93.8977 77.2955C95.2614 74.5682 97.1856 72.447 99.6705 70.9318C102.17 69.4015 105.125 68.6364 108.534 68.6364C111.367 68.6364 113.875 69.1591 116.057 70.2045C118.254 71.2348 120.004 72.697 121.307 74.5909C122.61 76.4697 123.352 78.6667 123.534 81.1818H115.67C115.352 79.5 114.595 78.0985 113.398 76.9773C112.216 75.8409 110.633 75.2727 108.648 75.2727C106.966 75.2727 105.489 75.7273 104.216 76.6364C102.943 77.5303 101.951 78.8182 101.239 80.5C100.542 82.1818 100.193 84.197 100.193 86.5455C100.193 88.9242 100.542 90.9697 101.239 92.6818C101.936 94.3788 102.913 95.6894 104.17 96.6136C105.443 97.5227 106.936 97.9773 108.648 97.9773C109.86 97.9773 110.943 97.75 111.898 97.2955C112.867 96.8258 113.678 96.1515 114.33 95.2727C114.981 94.3939 115.428 93.3258 115.67 92.0682H123.534C123.337 94.5379 122.61 96.7273 121.352 98.6364C120.095 100.53 118.383 102.015 116.216 103.091C114.049 104.152 111.504 104.682 108.58 104.682ZM138.517 83.5455V104H130.29V57.4545H138.335V75.0227H138.744C139.563 73.053 140.828 71.5 142.54 70.3636C144.267 69.2121 146.464 68.6364 149.131 68.6364C151.555 68.6364 153.669 69.1439 155.472 70.1591C157.275 71.1742 158.669 72.6591 159.653 74.6136C160.653 76.5682 161.153 78.9545 161.153 81.7727V104H152.926V83.0455C152.926 80.697 152.32 78.8712 151.108 77.5682C149.911 76.25 148.229 75.5909 146.062 75.5909C144.608 75.5909 143.305 75.9091 142.153 76.5455C141.017 77.1667 140.123 78.0682 139.472 79.25C138.835 80.4318 138.517 81.8636 138.517 83.5455Z" fill="white"/>
<path d="M129.734 59V11H147.734C151.422 11 154.516 11.6875 157.016 13.0625C159.531 14.4375 161.43 16.3281 162.711 18.7344C164.008 21.125 164.656 23.8437 164.656 26.8906C164.656 29.9687 164.008 32.7031 162.711 35.0938C161.414 37.4844 159.5 39.3672 156.969 40.7422C154.438 42.1016 151.32 42.7812 147.617 42.7812H135.688V35.6328H146.445C148.602 35.6328 150.367 35.2578 151.742 34.5078C153.117 33.7578 154.133 32.7266 154.789 31.4141C155.461 30.1016 155.797 28.5937 155.797 26.8906C155.797 25.1875 155.461 23.6875 154.789 22.3906C154.133 21.0937 153.109 20.0859 151.719 19.3672C150.344 18.6328 148.57 18.2656 146.398 18.2656H138.43V59H129.734ZM171.834 59V23H180.318V59H171.834ZM176.1 17.8906C174.756 17.8906 173.6 17.4453 172.631 16.5547C171.662 15.6484 171.178 14.5625 171.178 13.2969C171.178 12.0156 171.662 10.9297 172.631 10.0391C173.6 9.13281 174.756 8.67969 176.1 8.67969C177.459 8.67969 178.615 9.13281 179.568 10.0391C180.537 10.9297 181.021 12.0156 181.021 13.2969C181.021 14.5625 180.537 15.6484 179.568 16.5547C178.615 17.4453 177.459 17.8906 176.1 17.8906ZM188.574 59V53.6094L207.137 30.3359V30.0312H189.184V23H217.52V28.7891L199.848 51.6641V51.9687H218.129V59H188.574ZM225.635 59V53.6094L244.197 30.3359V30.0312H226.244V23H254.58V28.7891L236.908 51.6641V51.9687H255.189V59H225.635ZM273.523 59.7266C271.242 59.7266 269.188 59.3203 267.359 58.5078C265.547 57.6797 264.109 56.4609 263.047 54.8516C262 53.2422 261.477 51.2578 261.477 48.8984C261.477 46.8672 261.852 45.1875 262.602 43.8594C263.352 42.5312 264.375 41.4688 265.672 40.6719C266.969 39.875 268.43 39.2734 270.055 38.8672C271.695 38.4453 273.391 38.1406 275.141 37.9531C277.25 37.7344 278.961 37.5391 280.273 37.3672C281.586 37.1797 282.539 36.8984 283.133 36.5234C283.742 36.1328 284.047 35.5312 284.047 34.7187V34.5781C284.047 32.8125 283.523 31.4453 282.477 30.4766C281.43 29.5078 279.922 29.0234 277.953 29.0234C275.875 29.0234 274.227 29.4766 273.008 30.3828C271.805 31.2891 270.992 32.3594 270.57 33.5937L262.648 32.4687C263.273 30.2812 264.305 28.4531 265.742 26.9844C267.18 25.5 268.938 24.3906 271.016 23.6562C273.094 22.9062 275.391 22.5313 277.906 22.5313C279.641 22.5313 281.367 22.7344 283.086 23.1406C284.805 23.5469 286.375 24.2187 287.797 25.1562C289.219 26.0781 290.359 27.3359 291.219 28.9297C292.094 30.5234 292.531 32.5156 292.531 34.9062V59H284.375V54.0547H284.094C283.578 55.0547 282.852 55.9922 281.914 56.8672C280.992 57.7266 279.828 58.4219 278.422 58.9531C277.031 59.4688 275.398 59.7266 273.523 59.7266ZM275.727 53.4922C277.43 53.4922 278.906 53.1562 280.156 52.4844C281.406 51.7969 282.367 50.8906 283.039 49.7656C283.727 48.6406 284.07 47.4141 284.07 46.0859V41.8437C283.805 42.0625 283.352 42.2656 282.711 42.4531C282.086 42.6406 281.383 42.8047 280.602 42.9453C279.82 43.0859 279.047 43.2109 278.281 43.3203C277.516 43.4297 276.852 43.5234 276.289 43.6016C275.023 43.7734 273.891 44.0547 272.891 44.4453C271.891 44.8359 271.102 45.3828 270.523 46.0859C269.945 46.7734 269.656 47.6641 269.656 48.7578C269.656 50.3203 270.227 51.5 271.367 52.2969C272.508 53.0937 273.961 53.4922 275.727 53.4922Z" fill="#FF3F4B"/>
</g>
<defs>
<clipPath id="clip0_1_4">
<rect width="319" height="114" fill="white"/>
</clipPath>
</defs>
</svg>
